# xmcd
#
# Track frame offsets:
# 150
# 12534
# 22804
# 41519
# 52503
# 67911
# 84447
# 97575
# 111298
# 124847
# 139993
# 149970
# 157877
# 170220
# 180272
# 191495
# 208151
# 221599
#
# Disc length: 3144 seconds
#
#
# Revision: 1
# Processed by: cddbd v1.5.1PL2 Copyright (c) Steve Scherf et al.
# Submitted via: FreeRIP 2.945 
#
DISCID=f50c4612
DTITLE=Various Artist - Country Drinking Songs
DYEAR=2003
DGENRE=Country
TTITLE0=Merle Haggard - The Bottle Let Me Down
TTITLE1=Jim Ed Brown - Pop A Top
TTITLE2=Bobby Bare - Tequila Sheila
TTITLE3=Faron Young - Wine Me Up
TTITLE4=Tom T Hall - I Like Beer
TTITLE5=Cal Smith - Country Bumpkin
TTITLE6=Ray Price - City Lights
TTITLE7=Porter Wagner - Skid Row Joe
TTITLE8=David Houston - Almost Persuaded
TTITLE9=Ben Colder - Almost Persuaded 2
TTITLE10=Webb Pierce - There Stands The Glass
TTITLE11=Roger Miller - Dang Me
TTITLE12=Johnny Russell - Rednecks, White Socks, And Blue Ribbon Beer
TTITLE13=Red Stegall - Lone Star Beer And Bob Wills Music
TTITLE14=Hank Thompson - Smokey The Bar
TTITLE15=Merle Haggard - I Think I'll Just Stay Here And Drink
TTITLE16=Lefty Frizzell - If You've Got The Money
TTITLE17=Tex Ritter - Rye Whiskey
EXTD=K-Tel
EXTT0=
EXTT1=
EXTT2=
EXTT3=
EXTT4=
EXTT5=
EXTT6=
EXTT7=
EXTT8=
EXTT9=
EXTT10=
EXTT11=
EXTT12=
EXTT13=
EXTT14=
EXTT15=
EXTT16=
EXTT17=
PLAYORDER=
